<?xml version="1.0" encoding="UTF-8"?>
<svg version="1.1" xmlns="http://www.w3.org/2000/svg" width="855" height="854">
<path d="M0 0 C282.15 0 564.3 0 855 0 C855 281.82 855 563.64 855 854 C572.85 854 290.7 854 0 854 C0 572.18 0 290.36 0 0 Z " fill="#000000" transform="translate(0,0)"/>
<path d="M0 0 C0.81382828 -0.00583219 1.62765655 -0.01166439 2.46614629 -0.01767331 C3.35474503 -0.01389399 4.24334377 -0.01011467 5.15886974 -0.00622082 C6.58144794 -0.01195914 6.58144794 -0.01195914 8.03276509 -0.01781338 C11.2191583 -0.02815371 14.40537165 -0.02414911 17.59177685 -0.02018261 C19.87342019 -0.02452879 22.15506207 -0.02971162 24.43670177 -0.03567028 C30.64390206 -0.04908888 36.85104156 -0.04963524 43.05825353 -0.04710698 C48.24392538 -0.04603814 53.42958489 -0.05091897 58.6152541 -0.0557124 C71.56033269 -0.0674553 84.50537251 -0.06657715 97.45045277 -0.06015559 C108.66598972 -0.05499878 119.88143949 -0.06620793 131.09695921 -0.08525381 C142.62894613 -0.10468572 154.16088161 -0.1125876 165.69288605 -0.10913056 C172.16052424 -0.107322 178.62808278 -0.10991027 185.09570789 -0.1238451 C191.18848516 -0.13647947 197.28108937 -0.13442639 203.37386417 -0.12143421 C205.60095943 -0.1190802 207.82806707 -0.12176057 210.05514812 -0.13005733 C239.43194546 -0.2315352 265.77586183 6.85931279 287.47336864 27.73494434 C305.21601929 46.7147526 312.95483388 68.90641007 312.19993114 94.50447559 C311.51076413 109.51951867 306.95837002 122.25777833 301.50803661 136.13289356 C298.47850234 143.85511898 295.5240288 151.60665625 292.55555248 159.35249805 C291.77662841 161.3845309 290.99714074 163.41634778 290.21711254 165.44795704 C284.23338127 181.03453145 278.38273652 196.66537526 272.62781811 212.33772755 C268.17618028 224.4558617 263.66415288 236.54961848 259.07883739 248.61775684 C258.70569723 249.60000075 258.70569723 249.60000075 258.32501888 250.60208797 C256.09627826 256.46758961 253.86515038 262.33217744 251.62632275 268.19383717 C250.69095841 270.64295353 249.75649055 273.09241249 248.82299328 275.5422411 C247.97367676 277.77109299 247.12239349 279.99919699 246.26864147 282.22635365 C243.96069101 288.28775358 241.81870636 294.37599469 239.83797741 300.55251026 C238.88848584 303.2738441 237.77062415 305.84313569 236.54368114 308.44978809 C233.45218924 315.0529519 230.95099848 321.85833211 228.42304516 328.69038868 C227.15023844 332.12911377 225.86771559 335.56419407 224.58596325 338.99959278 C223.87193781 340.91350141 223.15833782 342.82756882 222.44512463 344.74178028 C217.68719812 357.50819268 212.88832236 370.25921383 208.08472729 383.00849628 C207.33208975 385.00621122 206.57972477 387.00402867 205.82737255 389.00185108 C199.44145675 405.95554107 193.00979506 422.88950951 186.34739208 439.73689747 C183.87442077 446.01012143 181.50393398 452.29322326 179.36789989 458.69197559 C178.97650829 459.85052052 178.58511669 461.00906544 178.18186474 462.20271778 C177.48573557 464.29388857 176.81249935 466.39293809 176.17112255 468.50154591 C173.79984126 475.63425939 170.1302538 480.02355231 163.89524364 484.25447559 C160.1119158 486.05499929 157.11199333 486.50839399 152.93674755 486.52190113 C151.14506145 486.53469608 151.14506145 486.53469608 149.31717968 486.54774952 C148.01520641 486.54684315 146.71323315 486.54593678 145.37180614 486.54500294 C143.98018058 486.55099037 142.58855833 486.55779641 141.19694042 486.56535816 C137.424276 486.58299986 133.65170235 486.58771266 129.87900066 486.58898973 C127.52122589 486.5904125 125.16347412 486.59468439 122.80570507 486.59998417 C114.57837492 486.61847573 106.35110951 486.62665555 98.12375927 486.62508106 C90.45683851 486.62387868 82.79019881 486.64500213 75.12334919 486.67656839 C68.53722402 486.70271805 61.95119076 486.71344897 55.36501408 486.71217024 C51.43287166 486.71166038 47.50097932 486.71735711 43.56888866 486.73852634 C39.87187515 486.75788786 36.17535088 486.758048 32.47832012 486.74349308 C30.4766252 486.74040483 28.47493034 486.75709446 26.47330761 486.77437305 C24.68162151 486.76178959 24.68162151 486.76178959 22.85373974 486.74895191 C21.81768597 486.75004145 20.78163219 486.75113098 19.71418285 486.75225353 C16.16116563 486.12484958 14.47787431 484.72094022 11.89524364 482.25447559 C10.0034823 478.32110019 10.58697882 474.36430145 11.72581005 470.26424122 C12.85121004 467.18571607 14.04889201 464.1606775 15.31534863 461.13847828 C16.94842835 457.23326091 18.50715843 453.29798891 20.07883739 449.36775684 C20.44188976 448.4647736 20.80494213 447.56179035 21.17899609 446.63144398 C26.6394131 432.99334659 31.75087236 419.21951336 36.91535473 405.46741581 C38.05796214 402.42616121 39.20245751 399.38561869 40.346982 396.34508514 C47.16253906 378.23825163 53.9390694 360.11728299 60.66813183 341.97810841 C66.13476769 327.24512065 71.71525184 312.55835986 77.35120678 297.88942432 C79.52377338 292.23133366 81.68219137 286.5679211 83.83664989 280.90291309 C84.17415264 280.01552952 84.51165539 279.12814594 84.85938549 278.21387196 C85.54717573 276.40538077 86.23495031 274.59688363 86.92270947 272.78838062 C91.95658132 259.55287163 97.01430558 246.32766862 102.14524364 233.12947559 C107.7077942 218.81526684 113.11937414 204.44670637 118.47263622 190.05305958 C119.4810742 187.34882399 120.507478 184.65202904 121.54246044 181.95784473 C121.81583233 181.24168491 122.08920422 180.52552509 122.3708601 179.78766346 C122.89491507 178.41584927 123.42265316 177.04543406 123.95478344 175.67673206 C126.31056077 169.48874621 128.21721231 163.59418589 125.70774364 157.25447559 C123.23232503 154.52297919 121.17991354 153.38524525 117.48884487 153.00952244 C116.13833349 153.01291567 116.13833349 153.01291567 114.76053905 153.01637745 C113.20460033 153.01263866 113.20460033 153.01263866 111.61722851 153.00882435 C109.91841534 153.01972347 109.91841534 153.01972347 108.18528271 153.03084278 C106.98810619 153.03043491 105.79092968 153.03002705 104.55747509 153.02960682 C101.27623983 153.02935753 97.99512881 153.03747061 94.71391296 153.04734802 C91.27431273 153.05405379 87.83477171 153.04484428 84.39518261 153.03578663 C72.68259048 153.00734599 60.97014805 152.99485086 49.25754833 153.02449512 C42.78667736 153.04071014 36.31618807 153.03549236 29.8453567 153.00669885 C26.42433392 152.99243855 23.00410548 152.98930992 19.58311749 153.01292133 C15.76240107 153.03452899 11.94345047 153.01921981 8.12278271 152.99568653 C6.43611492 153.01873104 6.43611492 153.01873104 4.71537304 153.0422411 C-1.65635836 152.95855552 -5.59196495 152.06818658 -10.58931828 148.02919865 C-13.79040848 144.28041561 -14.355547 140.54436087 -14.38564014 135.73376942 C-14.39706043 134.63620319 -14.40848072 133.53863697 -14.42024708 132.40781116 C-14.4224828 131.21340916 -14.42471851 130.01900715 -14.42702198 128.78841114 C-14.43695179 127.52281361 -14.4468816 126.25721607 -14.45711231 124.9532671 C-14.48328008 121.48826249 -14.49623415 118.02333524 -14.50513363 114.55824733 C-14.51100759 112.3907393 -14.51921948 110.22325214 -14.52814198 108.05575466 C-14.55546963 101.26622645 -14.57481425 94.47674625 -14.58254576 87.68716687 C-14.59150477 79.86393288 -14.62659776 72.04139821 -14.68454695 64.21837682 C-14.72784938 58.16128647 -14.74795789 52.10439241 -14.75062799 46.047149 C-14.7527191 42.4338772 -14.76442435 38.82126373 -14.80026722 35.20815563 C-14.83950535 31.17458327 -14.83062482 27.1424661 -14.81764698 23.10872364 C-14.83607655 21.92039433 -14.85450611 20.73206501 -14.87349415 19.50772572 C-14.80731307 12.93599256 -14.04561887 8.85025175 -9.78281879 3.74788094 C-6.74849456 1.04745936 -4.0428518 0.0049976 0 0 Z " fill="#FAB437" transform="translate(431.10475635528564,187.7455244064331)"/>
<path d="M0 0 C1.39192247 -0.00570873 2.78384026 -0.01267494 4.17575073 -0.02079773 C7.94008268 -0.03868382 11.70418096 -0.03757003 15.46854258 -0.03185534 C18.61486507 -0.02875847 21.761143 -0.03486111 24.90745914 -0.04089409 C32.32896905 -0.05492124 39.75036379 -0.05339169 47.171875 -0.04199219 C54.82408313 -0.030498 62.47594132 -0.04461237 70.12810338 -0.07138866 C76.70578798 -0.0935419 83.28336269 -0.10018434 89.86108196 -0.09431225 C93.78647239 -0.09094232 97.71163823 -0.09336062 101.63699722 -0.11056328 C105.32585216 -0.12602577 109.01418764 -0.12208528 112.703022 -0.10325813 C114.69991105 -0.0978141 116.6968234 -0.11208946 118.69366455 -0.12695312 C120.48101517 -0.11220192 120.48101517 -0.11220192 122.30447388 -0.09715271 C123.33793001 -0.09694343 124.37138615 -0.09673414 125.43615913 -0.09651852 C128.99435982 0.53658129 130.68522817 1.90495107 133.24951172 4.40405273 C135.6133787 12.70573876 131.48927939 20.95630558 128.18701172 28.40405273 C127.16242425 30.81056232 126.14029328 33.21811923 125.12060547 35.62670898 C124.62286621 36.79089355 124.12512695 37.95507812 123.61230469 39.15454102 C121.57146575 44.02081947 119.78214001 48.96177625 118.00158691 53.92735291 C115.57098689 60.6430686 112.94383522 67.27453194 110.30810547 73.91186523 C104.48286212 88.66608022 98.94548387 103.52092491 93.45193481 118.40124512 C90.61086055 126.09641899 87.75782033 133.78716364 84.90576172 141.47827148 C84.62056734 142.24757618 84.33537296 143.01688087 84.04153633 143.80949783 C75.94112268 165.65778813 67.70913072 187.45607065 59.44744873 209.24383545 C58.22318701 212.47349861 57.0001104 215.70360842 55.77734375 218.93383789 C46.89043297 242.40845636 37.96725887 265.86668388 28.8067627 289.23612976 C28.06396197 291.13765559 27.32805434 293.04171309 26.59375 294.9465332 C25.72400575 297.18360513 24.83306112 299.41259871 23.91699219 301.63110352 C23.53043457 302.59902832 23.14387695 303.56695312 22.74560547 304.56420898 C22.40585693 305.38671143 22.0661084 306.20921387 21.71606445 307.05664062 C20.68837387 312.22736012 24.62120661 317.0488602 27.12451172 321.40405273 C27.63304687 322.30897461 27.63304687 322.30897461 28.15185547 323.23217773 C29.14926813 324.97670178 30.19875872 326.69112709 31.24951172 328.40405273 C31.97154282 329.72752968 31.97154282 329.72752968 32.7081604 331.07774353 C36.70847554 334.73956308 40.74226277 334.07563255 45.98144531 334 C47.07454514 334.00405853 48.16764496 334.00811707 49.29386902 334.01229858 C51.66797264 334.0178205 54.04212459 334.01179429 56.41617966 333.99563789 C60.17384958 333.97028423 63.93041892 333.9749952 67.68814087 333.98753357 C74.98897237 334.00654708 82.28948665 333.99260647 89.59027863 333.97206116 C99.50674994 333.94520872 109.42294152 333.93894668 119.33943558 333.96705437 C123.04110576 333.97041868 126.74210454 333.94917762 130.44369507 333.926651 C132.71539456 333.92916237 134.98709321 333.93272251 137.25878906 333.9375 C138.28756668 333.92461441 139.3163443 333.91172882 140.376297 333.89845276 C146.17471734 333.93912774 149.73077618 334.39082727 154.24951172 338.40405273 C157.16813417 341.60497115 157.62882744 343.70327049 157.65065002 348.00105286 C157.66344498 349.14076035 157.67623993 350.28046783 157.68942261 351.45471191 C157.68806305 352.70103394 157.68670349 353.94735596 157.68530273 355.23144531 C157.69537857 356.54727097 157.70545441 357.86309662 157.71583557 359.21879578 C157.74232752 362.82639376 157.74936874 366.43377824 157.75128293 370.04146409 C157.75341639 372.29691359 157.75982304 374.55230894 157.76777458 376.80774498 C157.79552754 384.68078427 157.80778045 392.55367123 157.80541992 400.42675781 C157.80361857 407.7580674 157.83525493 415.08871403 157.88265091 422.41985589 C157.92192428 428.7198131 157.93796964 435.01955407 157.93605369 441.31963271 C157.93528995 445.07984484 157.94377388 448.839468 157.97558784 452.59955788 C158.00471197 456.13836637 158.00481703 459.67602631 157.98303795 463.21487617 C157.97842339 465.12557688 158.00338837 467.03627807 158.02935791 468.94680786 C157.95751374 475.50216432 157.51085648 479.53549637 152.73170376 484.23975658 C148.95544159 487.20609791 144.84707266 486.54895357 140.26435852 486.54449463 C139.32176546 486.54746575 138.3791724 486.55043687 137.40801591 486.55349803 C134.22927716 486.56221358 131.05057595 486.56369573 127.87182617 486.56518555 C125.6003308 486.56981201 123.32883621 486.57483643 121.05734253 486.58023071 C114.86863493 486.59338052 108.6799382 486.59980566 102.49121881 486.60424137 C98.6226202 486.60717029 94.75402458 486.61127494 90.88542747 486.61574554 C80.16500207 486.62786276 69.44458058 486.63823988 58.72414875 486.64162064 C58.037539 486.6418402 57.35092926 486.64205977 56.64351315 486.64228599 C55.61116097 486.6426134 55.61116097 486.6426134 54.55795318 486.64294744 C53.16339131 486.6433909 51.76882944 486.64383746 50.37426758 486.64428711 C49.68252 486.64450854 48.99077241 486.64472997 48.27806278 486.64495811 C37.0979691 486.64889636 25.91794099 486.66631719 14.73787258 486.68964663 C3.24663532 486.71343047 -8.24455983 486.72556853 -19.73582298 486.72698855 C-26.18225968 486.72803428 -32.62860415 486.73389171 -39.07501793 486.75180817 C-45.14970186 486.76836093 -51.22422496 486.77040945 -57.29892349 486.76166916 C-59.51957062 486.76090241 -61.74022663 486.76519329 -63.96085167 486.77512741 C-93.03341363 486.89747272 -119.40096944 480.01938655 -140.75048828 459.40405273 C-143.93693646 456.2032296 -146.90821392 452.91339149 -149.75048828 449.40405273 C-150.54326172 448.43532227 -150.54326172 448.43532227 -151.35205078 447.44702148 C-165.26441588 428.58721104 -168.59604977 404.81662546 -166.43408203 382.07592773 C-164.18953361 368.24465637 -158.42669133 355.01431636 -153.37548828 342.02905273 C-152.72145639 340.33649353 -152.06780866 338.64378583 -151.41455078 336.95092773 C-148.4974491 329.40459013 -145.54653102 321.87435637 -142.51611328 314.37280273 C-140.11607367 308.39724316 -137.93445233 302.37921674 -135.87548828 296.27905273 C-132.08135452 285.22027411 -127.97050757 274.30609336 -123.75048828 263.40405273 C-122.24875405 259.50888663 -120.74962705 255.61271839 -119.25048828 251.71655273 C-118.83935791 250.64880615 -118.42822754 249.58105957 -118.00463867 248.48095703 C-111.20489921 230.80716573 -104.48307456 213.10350287 -97.75048828 195.40405273 C-97.34670959 194.34263062 -96.94293091 193.2812085 -96.5269165 192.18762207 C-93.97563898 185.48081994 -91.42504026 178.77376012 -88.87521362 172.06640625 C-88.05331052 169.90442236 -87.2313121 167.74247471 -86.40921021 165.58056641 C-81.06797036 151.53341166 -75.76259858 137.47380035 -70.50680542 123.39447021 C-69.50537573 120.71243438 -68.50303559 118.03073934 -67.50048828 115.34912109 C-66.99990129 114.00917097 -66.49990257 112.66900093 -66.00048828 111.32861328 C-63.08030348 103.49297418 -60.08730401 95.6957856 -56.95970154 87.9405365 C-54.54661746 81.93843797 -52.27727931 75.88645379 -50.02645874 69.82202148 C-48.75284815 66.39827032 -47.46511956 62.97981281 -46.18017578 59.56030273 C-44.39048026 54.79669699 -42.61004422 50.02994119 -40.84912109 45.25561523 C-39.21725379 40.83156279 -37.56803958 36.41429106 -35.90866089 32.00048828 C-35.2675328 30.28554573 -34.63257863 28.56828089 -34.00418091 26.84863281 C-26.64752802 6.73941614 -26.64752802 6.73941614 -17.98725891 1.84117126 C-12.26517538 -0.53948971 -6.09209109 -0.02118073 0 0 Z " fill="#FAB538" transform="translate(273.75048828125,187.595947265625)"/>
<path d="M0 0 C1.88708317 0.00911329 1.88708317 0.00911329 3.81228924 0.01841068 C33.66794483 0.16236462 63.52361981 0.30105326 93.37932957 0.4332476 C97.05309814 0.44951882 100.72686651 0.46583453 104.40063477 0.48217773 C105.13202383 0.48543066 105.8634129 0.48868358 106.61696527 0.49203508 C118.46351147 0.54482989 130.31003791 0.60122936 142.15656098 0.6589582 C154.30985276 0.71810182 166.46315767 0.77337815 178.61648351 0.82505554 C186.1172756 0.85707196 193.61804107 0.89211405 201.11880068 0.93101191 C206.86788792 0.96050293 212.61698796 0.98461643 218.36610794 1.00670624 C220.7264124 1.01662146 223.08671022 1.02829302 225.44699669 1.04183006 C228.66385864 1.06002008 231.8806846 1.07195192 235.09757996 1.08229065 C236.50565714 1.09249633 236.50565714 1.09249633 237.94218034 1.10290819 C241.4216897 1.10892246 244.55981384 1.09267873 247.97437 0.37376308 C248.6428279 0.25042127 249.3112858 0.12707945 250 0 C252.3125 1.9375 252.3125 1.9375 254 4 C251.0800421 7.00042097 248.90281121 8.27334984 244.78781319 8.50057125 C243.07669474 8.52124424 241.36522507 8.51984416 239.65408325 8.50120544 C238.23634875 8.50950704 238.23634875 8.50950704 236.78997314 8.51797634 C233.62029467 8.53159782 230.45140159 8.51660465 227.28173828 8.50170898 C225.00979782 8.50549186 222.73785967 8.51099163 220.46592712 8.51808167 C214.28969548 8.53206547 208.11374156 8.52084221 201.93752527 8.50437045 C195.46761511 8.49052339 188.99772114 8.49698029 182.52780151 8.50050354 C171.65129483 8.50320786 160.77491531 8.48980551 149.8984375 8.46655273 C138.73400775 8.4426873 127.5697241 8.43552653 116.40527344 8.44604492 C102.93243625 8.45871549 89.45971117 8.45611883 75.98687363 8.44038582 C70.85249116 8.43464812 65.71815771 8.43469139 60.58377457 8.43945122 C54.52133182 8.44425225 48.45908936 8.43399054 42.39668465 8.41249657 C40.18088392 8.40696843 37.96506379 8.40642648 35.74926186 8.41144943 C23.78326392 8.43515602 12.62819011 8.01987693 1 5 C1 4.34 1 3.68 1 3 C0.34 3 -0.32 3 -1 3 C-0.67 2.01 -0.34 1.02 0 0 Z " fill="#F7C057" transform="translate(174,666)"/>
<path d="M0 0 C0.81382828 -0.00583219 1.62765655 -0.01166439 2.46614629 -0.01767331 C3.35474503 -0.01389399 4.24334377 -0.01011467 5.15886974 -0.00622082 C6.58144794 -0.01195914 6.58144794 -0.01195914 8.03276509 -0.01781338 C11.2191583 -0.02815371 14.40537165 -0.02414911 17.59177685 -0.02018261 C19.87342019 -0.02452879 22.15506207 -0.02971162 24.43670177 -0.03567028 C30.64390206 -0.04908888 36.85104156 -0.04963524 43.05825353 -0.04710698 C48.24392538 -0.04603814 53.42958489 -0.05091897 58.6152541 -0.0557124 C71.56033269 -0.0674553 84.50537251 -0.06657715 97.45045277 -0.06015559 C108.66598972 -0.05499878 119.88143949 -0.06620793 131.09695921 -0.08525381 C142.62894613 -0.10468572 154.16088161 -0.1125876 165.69288605 -0.10913056 C172.16052424 -0.107322 178.62808278 -0.10991027 185.09570789 -0.1238451 C191.18848516 -0.13647947 197.28108937 -0.13442639 203.37386417 -0.12143421 C205.60095943 -0.1190802 207.82806707 -0.12176057 210.05514812 -0.13005733 C224.69868243 -0.18064129 238.60800251 0.23618434 252.33274364 5.94197559 C253.40395458 6.37896778 254.47516552 6.81595997 255.57883739 7.26619434 C256.34325146 7.59232716 257.10766552 7.91845997 257.89524364 8.25447559 C257.89524364 8.91447559 257.89524364 9.57447559 257.89524364 10.25447559 C256.20774364 10.94197559 256.20774364 10.94197559 253.89524364 11.25447559 C253.21075146 10.77752247 252.52625927 10.30056934 251.82102489 9.80916309 C247.80004494 7.6725142 244.25754516 7.76760427 239.77024364 7.69197559 C238.16326845 7.65748566 236.55644216 7.61484945 234.94993114 7.56306934 C233.89008007 7.54457935 233.89008007 7.54457935 232.80881786 7.52571583 C230.89524364 7.25447559 230.89524364 7.25447559 227.89524364 5.25447559 C229.21524364 4.59447559 230.53524364 3.93447559 231.89524364 3.25447559 C204.69685912 3.18446786 177.49848806 3.13152785 150.30003166 3.09903908 C137.67198905 3.08355462 125.04400234 3.06243496 112.4159956 3.02815723 C101.41246228 2.99830319 90.40896945 2.97891209 79.40539676 2.97221011 C73.57634079 2.96829107 67.74740063 2.95904807 61.91838169 2.93728542 C56.43636727 2.91698337 50.95451682 2.91062904 45.47246838 2.91515255 C43.45641026 2.91432453 41.44034688 2.90832165 39.42432117 2.89685917 C36.67949521 2.8820133 33.93529477 2.88549293 31.19045544 2.89371204 C29.98375093 2.88060426 29.98375093 2.88060426 28.75266856 2.86723167 C24.5991165 2.81310291 24.5991165 2.81310291 21.07820892 4.74504089 C20.49264111 5.49221107 20.49264111 5.49221107 19.89524364 6.25447559 C16.67258739 6.76619434 16.67258739 6.76619434 12.83274364 6.94197559 C11.83271313 6.99104053 11.83271313 6.99104053 10.81247997 7.04109669 C-4.16725894 7.7232243 -4.16725894 7.7232243 -7.10475636 6.25447559 C-7.10383456 6.85264402 -7.10291277 7.45081245 -7.10196304 8.0671072 C-7.07972542 22.72899388 -7.06325691 37.39087955 -7.05294418 52.0527792 C-7.04782246 59.14361781 -7.04086 66.23444506 -7.0293169 73.32527637 C-7.01924232 79.51704237 -7.01287309 85.70880012 -7.01066786 91.90057409 C-7.00938206 95.16869556 -7.00588186 98.43678844 -6.9990263 101.7049036 C-6.96774709 117.25324816 -7.22832348 132.72935938 -8.10475636 148.25447559 C-10.86396815 147.2427646 -11.91739823 146.60107794 -13.33720112 143.97451973 C-14.14807156 141.10097618 -14.36698086 138.71658172 -14.38564014 135.73376942 C-14.39706043 134.63620319 -14.40848072 133.53863697 -14.42024708 132.40781116 C-14.4224828 131.21340916 -14.42471851 130.01900715 -14.42702198 128.78841114 C-14.43695179 127.52281361 -14.4468816 126.25721607 -14.45711231 124.9532671 C-14.48328008 121.48826249 -14.49623415 118.02333524 -14.50513363 114.55824733 C-14.51100759 112.3907393 -14.51921948 110.22325214 -14.52814198 108.05575466 C-14.55546963 101.26622645 -14.57481425 94.47674625 -14.58254576 87.68716687 C-14.59150477 79.86393288 -14.62659776 72.04139821 -14.68454695 64.21837682 C-14.72784938 58.16128647 -14.74795789 52.10439241 -14.75062799 46.047149 C-14.7527191 42.4338772 -14.76442435 38.82126373 -14.80026722 35.20815563 C-14.83950535 31.17458327 -14.83062482 27.1424661 -14.81764698 23.10872364 C-14.83607655 21.92039433 -14.85450611 20.73206501 -14.87349415 19.50772572 C-14.80731307 12.93599256 -14.04561887 8.85025175 -9.78281879 3.74788094 C-6.74849456 1.04745936 -4.0428518 0.0049976 0 0 Z " fill="#F0B641" transform="translate(431.10475635528564,187.7455244064331)"/>
<path d="M0 0 C1.65 0.33 3.3 0.66 5 1 C4.67 4.3 4.34 7.6 4 11 C7.64444735 11.83572505 11.01932684 12.13115104 14.75521851 12.14717102 C15.90471481 12.15432632 17.05421112 12.16148163 18.23854065 12.16885376 C20.11665688 12.17288712 20.11665688 12.17288712 22.03271484 12.17700195 C23.37183303 12.18327212 24.71094949 12.18991941 26.05006409 12.19691467 C30.43700973 12.21788521 34.82395545 12.22830795 39.2109375 12.23828125 C40.72420901 12.24233091 42.23748035 12.24644789 43.7507515 12.25063133 C50.85903505 12.26966469 57.96730831 12.28390167 65.07561243 12.2922433 C73.27052742 12.30202026 81.46517264 12.32835933 89.65999258 12.36874419 C96.00240313 12.39892429 102.3447364 12.41371381 108.68721735 12.41702431 C112.47189176 12.41937189 116.25627733 12.42829447 120.04087448 12.45348549 C123.60162865 12.47680592 127.16190456 12.48098389 130.72271538 12.47072411 C132.64531939 12.46999467 134.56789934 12.48905605 136.49040222 12.50878906 C143.21444097 12.46836915 147.53141399 12.03724535 153 8 C152.67 6.35 152.34 4.7 152 3 C153.32 3 154.64 3 156 3 C156 3.66 156 4.32 156 5 C156.66 5 157.32 5 158 5 C158.5 7.5625 158.5 7.5625 158 11 C153.7708714 15.96999785 148.80345007 19.65288026 142.18106079 20.25726891 C141.14500702 20.26062059 140.10895325 20.26397228 139.04150391 20.26742554 C137.84704651 20.27595551 136.65258911 20.28448547 135.42193604 20.29327393 C134.11996277 20.29236755 132.8179895 20.29146118 131.4765625 20.29052734 C130.08493693 20.29651478 128.69331468 20.30332082 127.30169678 20.31088257 C123.52903236 20.32852427 119.7564587 20.33323706 115.98375702 20.33451414 C113.62598225 20.33593691 111.26823048 20.34020879 108.91046143 20.34550858 C100.68313127 20.36400014 92.45586587 20.37217995 84.22851562 20.37060547 C76.56159486 20.36940308 68.89495516 20.39052653 61.22810555 20.4220928 C54.64198038 20.44824246 48.05594712 20.45897338 41.46977043 20.45769465 C37.53762802 20.45718479 33.60573567 20.46288152 29.67364502 20.48405075 C25.9766315 20.50341227 22.28010723 20.50357241 18.58307648 20.48901749 C16.58138156 20.48592924 14.57968669 20.50261887 12.57806396 20.51989746 C11.38360657 20.51150848 10.18914917 20.50311951 8.95849609 20.49447632 C7.92244232 20.49556585 6.88638855 20.49665539 5.81893921 20.49777794 C2.26040821 19.86940035 0.57552498 18.48425037 -2 16 C-3.69496422 11.59146325 -3.39125036 7.24250084 -1.5625 2.9375 C-1.046875 1.968125 -0.53125 0.99875 0 0 Z " fill="#F6C667" transform="translate(445,654)"/>
<path d="M0 0 C-0.13110352 1.78271484 -0.13110352 1.78271484 -1 4 C-3.51147461 5.72900391 -3.51147461 5.72900391 -6.90234375 7.4765625 C-7.51900909 7.79942734 -8.13567444 8.12229218 -8.77102661 8.4549408 C-10.82021491 9.52427511 -12.87868058 10.57434571 -14.9375 11.625 C-16.37434935 12.37090451 -17.8104552 13.11824283 -19.24584961 13.86694336 C-22.27124555 15.44337834 -25.2999714 17.0131433 -28.33105469 18.57861328 C-35.21142839 22.13856201 -42.0500331 25.77731782 -48.89187622 29.4105835 C-50.99789207 30.52821357 -53.10500681 31.6437364 -55.21264648 32.75830078 C-55.87996292 33.11126221 -56.54727936 33.46422363 -57.2348175 33.82788086 C-58.54539157 34.52081766 -59.85616786 35.21337214 -61.16716003 35.90551758 C-64.53981217 37.68836009 -67.90373008 39.48572993 -71.25732422 41.30419922 C-72.29233315 41.86324196 -72.29233315 41.86324196 -73.34825134 42.43357849 C-74.6681502 43.14725718 -75.98624756 43.8642807 -77.30226135 44.58509827 C-81.77646896 47 -81.77646896 47 -84 47 C-83.9071875 48.1446875 -83.9071875 48.1446875 -83.8125 49.3125 C-84 52 -84 52 -85.0625 53.8125 C-88.09375543 55.67036623 -90.53422859 55.37133265 -94 55 C-95.8125 53.9375 -95.8125 53.9375 -97 52 C-97.34611328 50.35064453 -97.34611328 50.35064453 -97.69921875 48.66796875 C-99.24013856 44.32285253 -101.26279185 42.74117363 -105 40.375 C-106.27428862 39.51688755 -107.54768255 38.65744544 -108.8203125 37.796875 C-109.49868164 37.34634766 -110.17705078 36.89582031 -110.87597656 36.43164062 C-114.6055454 33.91782549 -118.23515344 31.2662803 -121.875 28.625 C-122.62813477 28.08157959 -123.38126953 27.53815918 -124.15722656 26.97827148 C-130.05990753 22.71123526 -135.89842116 18.36261537 -141.69873047 13.95751953 C-145.38628566 11.16627894 -149.12523619 8.52572794 -153 6 C-152.67 4.68 -152.34 3.36 -152 2 C-146.92496487 3.58656438 -143.28828929 6.68564931 -139.1875 9.9375 C-132.96354968 14.78736625 -126.65984612 19.42499182 -120.10131836 23.81176758 C-116.43960538 26.27374456 -112.89693514 28.82337973 -109.41796875 31.5390625 C-108.25092407 32.43334961 -108.25092407 32.43334961 -107.06030273 33.34570312 C-105.57085678 34.49281103 -104.09624219 35.65956942 -102.64086914 36.84960938 C-96.81998249 41.28534625 -91.32465333 42.85881448 -84 42 C-79.31850229 40.40137006 -75.1638748 38.13373565 -70.875 35.6875 C-69.67865012 35.03266598 -68.48087384 34.38043171 -67.28173828 33.73071289 C-63.83534793 31.8535751 -60.41720494 29.92974028 -57 28 C-55.37590984 27.09731942 -53.75103038 26.1960559 -52.125 25.296875 C-50.01383576 24.12701842 -47.90472685 22.95425221 -45.80200195 21.76928711 C-38.27855285 17.54064049 -30.60990068 13.59336507 -22.93896484 9.64038086 C-21.93945801 9.12483643 -20.93995117 8.60929199 -19.91015625 8.078125 C-18.93320801 7.57603516 -17.95625977 7.07394531 -16.94970703 6.55664062 C-12.99948724 4.47200221 -9.13241708 2.24663816 -5.27514648 -0.00488281 C-3 -1 -3 -1 0 0 Z " fill="#EDB538" transform="translate(518,386)"/>
<path d="M0 0 C18.1673377 -0.09343678 36.33461305 -0.16397593 54.50213909 -0.20724869 C62.9376243 -0.22787494 71.37296022 -0.25599664 79.80834961 -0.30175781 C87.16054869 -0.34162377 94.51263965 -0.36743236 101.8649438 -0.37635398 C105.75807218 -0.38156918 109.65089126 -0.39382776 113.54392052 -0.42292023 C117.2088153 -0.45008577 120.8732736 -0.45844286 124.53825951 -0.45243073 C126.5233352 -0.45405455 128.50836342 -0.47557144 130.49331665 -0.49768066 C131.67817154 -0.49218201 132.86302643 -0.48668335 134.08378601 -0.48101807 C135.11158519 -0.48470524 136.13938437 -0.48839241 137.19832897 -0.49219131 C140.75408941 0.13247675 142.4398293 1.50274094 145 4 C147.2575026 12.07389164 143.489704 19.85857003 140 27 C139.01 27 138.02 27 137 27 C137 20.73 137 14.46 137 8 C130.80978117 7.31219791 124.98668668 6.86171066 118.80859375 6.90234375 C117.56252098 6.90446617 117.56252098 6.90446617 116.29127502 6.90663147 C113.67331125 6.9121683 111.05543733 6.92470838 108.4375 6.9375 C106.64778771 6.94252319 104.85807405 6.94708465 103.06835938 6.95117188 C98.71220567 6.96211692 94.356118 6.97933681 90 7 C91.32 6.34 92.64 5.68 94 5 C90.12837079 2.41891386 86.89022656 2.69283375 82.39770508 2.68115234 C81.51944565 2.67110672 80.64118622 2.6610611 79.73631287 2.65071106 C76.83072571 2.61979786 73.92523103 2.60282133 71.01953125 2.5859375 C69.00598856 2.5672324 66.99245377 2.54765948 64.97892761 2.5272522 C59.67714077 2.47585552 54.37532848 2.43627013 49.07342529 2.39910889 C43.66412017 2.35911646 38.25492154 2.30800242 32.84570312 2.2578125 C22.23054348 2.16096399 11.6153238 2.07658778 1 2 C0.67 1.34 0.34 0.68 0 0 Z " fill="#F7C55C" transform="translate(262,188)"/>
<path d="M0 0 C29.55487072 -0.06855736 59.10973766 -0.12159058 88.66467131 -0.15319599 C92.16031811 -0.15694774 95.65596476 -0.16083075 99.15161133 -0.16479492 C99.84748053 -0.16558185 100.54334973 -0.16636878 101.26030587 -0.16717956 C112.50195305 -0.1802047 123.74355381 -0.20384245 134.98517353 -0.23145839 C146.53510235 -0.25959337 158.08499865 -0.275969 169.63496107 -0.28226548 C176.11608802 -0.28616648 182.59710999 -0.29529485 189.0782032 -0.31719017 C195.18732329 -0.33766024 201.29629587 -0.3438126 207.40544701 -0.33932304 C209.63899667 -0.34014355 211.87255163 -0.34604608 214.10607147 -0.35761642 C228.77579179 -0.42983707 242.68716644 -0.02893081 256.4375 5.6875 C257.50871094 6.12449219 258.57992188 6.56148437 259.68359375 7.01171875 C260.44800781 7.33785156 261.21242188 7.66398438 262 8 C262 8.66 262 9.32 262 10 C260.3125 10.6875 260.3125 10.6875 258 11 C257.31550781 10.52304688 256.63101562 10.04609375 255.92578125 9.5546875 C251.90480129 7.4180386 248.36230152 7.51312868 243.875 7.4375 C242.26802481 7.40301007 240.66119852 7.36037386 239.0546875 7.30859375 C237.99483643 7.29010376 237.99483643 7.29010376 236.91357422 7.27124023 C235 7 235 7 232 5 C233.32 4.34 234.64 3.68 236 3 C158.12 2.67 80.24 2.34 0 2 C0 1.34 0 0.68 0 0 Z " fill="#F8CD6A" transform="translate(427,188)"/>
<path d="M0 0 C5.07503513 1.58656438 8.71171071 4.68564931 12.8125 7.9375 C18.41177249 12.30060081 24.05866806 16.52088117 29.9375 20.5 C36.00937923 24.61194947 41.99492107 28.82799481 47.9375 33.125 C48.72568115 33.69412109 49.5138623 34.26324219 50.32592773 34.84960938 C55.86362921 38.86362921 55.86362921 38.86362921 57 40 C57.04092937 42.33297433 57.04241723 44.66705225 57 47 C56.67 46.01 56.34 45.02 56 44 C55.31808594 43.731875 54.63617188 43.46375 53.93359375 43.1875 C49.75291514 41.49518802 46.5837652 38.78113677 43.0625 36 C41.53258743 34.81077743 40.00132002 33.62329591 38.46875 32.4375 C37.71078125 31.85097656 36.9528125 31.26445312 36.171875 30.66015625 C33.18109433 28.37403793 30.13587618 26.1732772 27.0625 24 C26.51561523 23.61328125 25.96873047 23.2265625 25.40527344 22.828125 C24.25008133 22.01160367 23.09480506 21.19520141 21.93945312 20.37890625 C17.25391107 17.04759438 12.6066934 13.66246586 7.95141602 10.2890625 C7.22108154 9.76054687 6.49074707 9.23203125 5.73828125 8.6875 C5.08899658 8.21699219 4.43971191 7.74648438 3.77075195 7.26171875 C2.20188241 6.14384783 0.60285523 5.06857015 -1 4 C-0.67 2.68 -0.34 1.36 0 0 Z " fill="#E9B138" transform="translate(366,388)"/>
<path d="M0 0 C0.495 0.495 0.495 0.495 1 1 C1.99 1 2.98 1 4 1 C4 1.66 4 2.32 4 3 C0.19411028 4.9990225 -3.61451256 6.99270521 -7.42578125 8.98144531 C-8.72244854 9.65901244 -10.01835199 10.33804339 -11.31347656 11.01855469 C-13.17314882 11.995381 -15.0354874 12.96694285 -16.8984375 13.9375 C-18.01911621 14.52402344 -19.13979492 15.11054688 -20.29443359 15.71484375 C-23 17 -23 17 -25 17 C-24.938125 17.763125 -24.87625 18.52625 -24.8125 19.3125 C-25 22 -25 22 -26.0625 23.8125 C-29.09375543 25.67036623 -31.53422859 25.37133265 -35 25 C-36.9375 23.875 -36.9375 23.875 -38 22 C-38.43246256 17.93485192 -37.91831011 15.53855609 -36 12 C-35.34588135 12.06960938 -34.6917627 12.13921875 -34.01782227 12.2109375 C-25.57042288 12.71236426 -20.15582168 10.14878295 -12.9375 6 C-10.90654683 4.87211606 -8.87407282 3.74696482 -6.83984375 2.625 C-5.95675537 2.12226563 -5.07366699 1.61953125 -4.16381836 1.1015625 C-2 0 -2 0 0 0 Z " fill="#E6B133" transform="translate(459,416)"/>
<path d="M0 0 C0.33 0.66 0.66 1.32 1 2 C-2.3063606 2.99615045 -5.27471674 3.11047959 -8.72003174 3.08229065 C-9.88668365 3.07525116 -11.05333557 3.06821167 -12.25534058 3.06095886 C-13.53136139 3.04801285 -14.8073822 3.03506683 -16.12207031 3.02172852 C-17.48224572 3.01158186 -18.84242457 3.0018886 -20.2026062 2.99261475 C-23.89238183 2.96617249 -27.58207706 2.93338514 -31.2717905 2.89946485 C-35.12881742 2.86508342 -38.98588734 2.83652867 -42.84295654 2.80735779 C-50.14563328 2.75124152 -57.44825616 2.68987954 -64.75087428 2.62663645 C-73.0651666 2.55488707 -81.37950202 2.48898022 -89.69384623 2.42356598 C-106.79595378 2.28888181 -123.89799271 2.14685453 -141 2 C-140.67 1.34 -140.34 0.68 -140 0 C-139.17533737 0.00333092 -139.17533737 0.00333092 -138.33401489 0.00672913 C-130.9310242 0.0350151 -123.52803527 0.0513137 -116.125 0.0625 C-114.27503418 0.0654155 -114.27503418 0.0654155 -112.38769531 0.06838989 C-95.94102347 0.0861398 -79.49964465 -0.01699617 -63.0546875 -0.2578125 C-62.21959782 -0.26992579 -61.38450813 -0.28203907 -60.5241127 -0.29451942 C-52.2235129 -0.4156865 -43.92310215 -0.54495355 -35.62289619 -0.69069672 C-32.50591997 -0.74448779 -29.3888836 -0.79394782 -26.27182388 -0.84263229 C-24.82131434 -0.8664476 -23.3708373 -0.89235306 -21.92040634 -0.9205513 C-6.93578269 -1.21161091 -6.93578269 -1.21161091 0 0 Z " fill="#F5B63B" transform="translate(594,670)"/>
<path d="M0 0 C0.99 0.33 1.98 0.66 3 1 C3 1.66 3 2.32 3 3 C3.66 3 4.32 3 5 3 C5.50835614 6.05013686 5.57206144 8.13618723 3.828125 10.76953125 C1.3352927 13.30391076 -0.70544754 14.97656733 -4.35444641 15.0426178 C-5.20854599 14.92293137 -6.06264557 14.80324493 -6.94262695 14.67993164 C-13.33981532 13.9256166 -19.66845191 13.77744364 -26.10546875 13.68359375 C-27.3106868 13.66281265 -28.51590485 13.64203156 -29.75764465 13.62062073 C-33.5675444 13.55579038 -37.37750677 13.49655285 -41.1875 13.4375 C-43.78711558 13.39425136 -46.38672507 13.35063517 -48.98632812 13.30664062 C-55.32415459 13.20017825 -61.66204187 13.09829456 -68 13 C-67.67 12.34 -67.34 11.68 -67 11 C-66.26385971 10.99635437 -65.52771942 10.99270874 -64.76927185 10.98895264 C-57.81047345 10.95098708 -50.85205735 10.8940375 -43.89359951 10.81609726 C-40.31666241 10.77669337 -36.73996885 10.74447068 -33.1628418 10.72900391 C-29.70659185 10.71378979 -26.25101178 10.67926232 -22.79506111 10.63169098 C-20.84381949 10.60977073 -18.89238862 10.60753035 -16.94102478 10.60565186 C-10.10726768 10.49342526 -5.54971834 10.12901922 0 6 C-0.185625 5.195625 -0.37125 4.39125 -0.5625 3.5625 C-0.7790625 2.2940625 -0.7790625 2.2940625 -1 1 C-0.67 0.67 -0.34 0.34 0 0 Z " fill="#F7BF53" transform="translate(598,656)"/>
<path d="M0 0 C4.36409699 1.454699 5.39118553 4.83059009 7.4375 8.6875 C10.09937493 13.62072183 12.81036185 18.3862865 16 23 C13.91846065 23.13536022 11.83438794 23.23215465 9.75 23.3125 C8.58984375 23.37050781 7.4296875 23.42851563 6.234375 23.48828125 C3 23 3 23 0.640625 20.60546875 C-1.67392217 16.92974742 -2.15818788 15.01983098 -2.1875 10.6875 C-2.20167969 9.74261719 -2.21585937 8.79773438 -2.23046875 7.82421875 C-1.98824335 4.85593118 -1.24026607 2.69132835 0 0 Z " fill="#DB970E" transform="translate(293,499)"/>
<path d="M0 0 C1.65 0.33 3.3 0.66 5 1 C4.67 4.3 4.34 7.6 4 11 C7.94651797 11.88821056 11.79770554 12.26857085 15.83203125 12.53515625 C17.12431641 12.62216797 18.41660156 12.70917969 19.74804688 12.79882812 C21.10285994 12.88679024 22.45767771 12.97467996 23.8125 13.0625 C25.18686908 13.15399506 26.56121832 13.24578885 27.93554688 13.33789062 C31.29018097 13.5615329 34.64498718 13.78212555 38 14 C38 14.33 38 14.66 38 15 C36.92516357 15.02505615 35.85032715 15.0501123 34.74291992 15.07592773 C30.75646978 15.17007495 26.77019091 15.27027785 22.78393555 15.37231445 C21.05839035 15.41563562 19.33280307 15.45731273 17.60717773 15.49731445 C15.12731236 15.55508526 12.64765828 15.61876003 10.16796875 15.68359375 C9.39599655 15.70030624 8.62402435 15.71701874 7.82865906 15.73423767 C4.64817067 15.82227895 2.03764416 15.98745195 -1 17 C-2.81426728 13.92970153 -3.20901169 12.02714249 -2.75 8.5 C-2.66234375 7.7471875 -2.5746875 6.994375 -2.484375 6.21875 C-1.97595134 3.8898416 -1.15218067 2.07770284 0 0 Z " fill="#F6C157" transform="translate(445,654)"/>
<path d="M0 0 C1.25425781 0.10183594 2.50851562 0.20367187 3.80078125 0.30859375 C5.22970703 0.43427734 5.22970703 0.43427734 6.6875 0.5625 C8.90892134 8.49352494 9.29056955 14.87595162 5.6875 22.5625 C4.6975 22.5625 3.7075 22.5625 2.6875 22.5625 C2.6875 16.2925 2.6875 10.0225 2.6875 3.5625 C0.769375 3.43875 -1.14875 3.315 -3.125 3.1875 C-8.9375 2.8125 -8.9375 2.8125 -12.3125 0.5625 C-8.06698144 -0.53337955 -4.3532161 -0.36615836 0 0 Z " fill="#F9C552" transform="translate(396.3125,192.4375)"/>
<path d="M0 0 C0 0.33 0 0.66 0 1 C-6.55565579 1.93652226 -13.09699946 2.30948744 -19.70703125 2.62109375 C-23.13732045 2.76224855 -23.13732045 2.76224855 -26 5 C-28.69921875 5.1953125 -28.69921875 5.1953125 -31.6875 5.125 C-33.17830078 5.09792969 -33.17830078 5.09792969 -34.69921875 5.0703125 C-35.45847656 5.04710937 -36.21773438 5.02390625 -37 5 C-37.33 3.68 -37.66 2.36 -38 1 C-25.36944374 -0.40618519 -12.68803757 -0.09640239 0 0 Z " fill="#F8B73A" transform="translate(336,190)"/>
<path d="M0 0 C2.475 0.99 2.475 0.99 5 2 C3.83805848 8.46712188 1.8751252 14.09622349 -1 20 C-1.66 20 -2.32 20 -3 20 C-4.36046512 11.08139535 -4.36046512 11.08139535 -3 7 C-2.34 6.67 -1.68 6.34 -1 6 C-0.34227572 2.97065509 -0.34227572 2.97065509 0 0 Z " fill="#F6C04B" transform="translate(655,510)"/>
<path d="M0 0 C0.99 0 1.98 0 3 0 C3.33 0.99 3.66 1.98 4 3 C3.34 3 2.68 3 2 3 C2.33 3.99 2.66 4.98 3 6 C3.45201786 11.77029047 2.25382434 15.76487162 0 20.9375 C-0.28617188 21.62134766 -0.57234375 22.30519531 -0.8671875 23.00976562 C-1.56708417 24.67785269 -2.28199993 26.33962483 -3 28 C-4.65 27.67 -6.3 27.34 -8 27 C-8 25.68 -8 24.36 -8 23 C-6.68 23.33 -5.36 23.66 -4 24 C-0.33069125 14.6563063 -0.33069125 14.6563063 -1 5 C-0.5625 2.3125 -0.5625 2.3125 0 0 Z " fill="#F2C249" transform="translate(709,365)"/>
<path d="M0 0 C3.620225 2.41348333 5.01386527 4.85357524 6 9 C5.9562406 12.0631583 5.56607284 14.99231176 5 18 C3.35 17.67 1.7 17.34 0 17 C-0.19386492 14.35448944 -0.38038267 11.70882217 -0.5625 9.0625 C-0.61857422 8.30775391 -0.67464844 7.55300781 -0.73242188 6.77539062 C-0.86176157 4.85254042 -0.93516912 2.92610452 -1 1 C-0.67 0.67 -0.34 0.34 0 0 Z " fill="#F5CE69" transform="translate(733,239)"/>
<path d="M0 0 C3.12270026 1.41115314 5.49653681 3.110624 8.0625 5.375 C8.73410156 5.96023437 9.40570312 6.54546875 10.09765625 7.1484375 C11.99486632 8.99500336 13.56492731 10.77472906 15 13 C14.6875 15.25 14.6875 15.25 14 17 C13.67 16.01 13.34 15.02 13 14 C11.865625 13.690625 10.73125 13.38125 9.5625 13.0625 C6 12 6 12 4.6875 9.9375 C4.3471875 8.9784375 4.3471875 8.9784375 4 8 C3.34 7.67 2.68 7.34 2 7 C0.42451317 4.37418862 0 3.12900213 0 0 Z " fill="#F6C852" transform="translate(708,208)"/>
<path d="M0 0 C1.4650113 4.50371428 -0.13630407 7.58005406 -1.9375 11.75 C-2.22818359 12.44738281 -2.51886719 13.14476562 -2.81835938 13.86328125 C-3.53551703 15.57975695 -4.26643402 17.29047232 -5 19 C-5.99 19 -6.98 19 -8 19 C-8.08114106 17.22992286 -8.13925505 15.45877902 -8.1875 13.6875 C-8.22230469 12.70136719 -8.25710938 11.71523438 -8.29296875 10.69921875 C-8 8 -8 8 -6.62109375 6.20703125 C-5 5 -5 5 -2.875 4 C-0.6469565 3.08797022 -0.6469565 3.08797022 0 0 Z " fill="#F6C85C" transform="translate(619,617)"/>
<path d="M0 0 C1.65 0.33 3.3 0.66 5 1 C4.69163768 3.12560437 4.37818386 5.25047065 4.0625 7.375 C3.88847656 8.55835938 3.71445312 9.74171875 3.53515625 10.9609375 C3 14 3 14 2 16 C1.01 16 0.02 16 -1 16 C-1.11138159 10.54230189 -0.91657981 5.38490641 0 0 Z " fill="#F9C85C" transform="translate(734,299)"/>
<path d="M0 0 C0.33 0 0.66 0 1 0 C1 1.65 1 3.3 1 5 C1.66 5 2.32 5 3 5 C2.67 5.99 2.34 6.98 2 8 C2.66 8.66 3.32 9.32 4 10 C2.02 10 0.04 10 -2 10 C-2.33 12.31 -2.66 14.62 -3 17 C-3.66 17 -4.32 17 -5 17 C-5.2165625 17.86625 -5.2165625 17.86625 -5.4375 18.75 C-5.95833333 20.83333333 -6.47916667 22.91666667 -7 25 C-7.66 25 -8.32 25 -9 25 C-6.68860831 16.38296958 -3.39204534 8.23311977 0 0 Z " fill="#E9B13E" transform="translate(224,257)"/>
<path d="M0 0 C4.56454251 0.54339792 7.9728176 1.79463821 12 4 C11.67 5.98 11.34 7.96 11 10 C6.01987239 8.49087042 2.75740058 5.44338151 -1 2 C-0.67 1.34 -0.34 0.68 0 0 Z " fill="#F6C34E" transform="translate(139,649)"/>
<path d="M0 0 C0.66 1.32 1.32 2.64 2 4 C2.33 4.33 2.66 4.66 3 5 C3.25256877 8.97275815 3.18522451 12.95766175 3.1875 16.9375 C3.19974609 18.06091797 3.21199219 19.18433594 3.22460938 20.34179688 C3.22654297 21.41365234 3.22847656 22.48550781 3.23046875 23.58984375 C3.23457764 24.57847412 3.23868652 25.56710449 3.24291992 26.58569336 C3 29 3 29 1 31 C0.67 20.77 0.34 10.54 0 0 Z " fill="#E9B84B" transform="translate(740,259)"/>
<path d="M0 0 C0.33 0 0.66 0 1 0 C1.92092281 4.65537356 2.12205997 9.14685433 2.0625 13.875 C2.05798828 14.56335938 2.05347656 15.25171875 2.04882812 15.9609375 C2.03716336 17.64066335 2.01923271 19.32034375 2 21 C1.34 21 0.68 21 0 21 C-1.39773661 14.9098619 -2.43919874 9.25858211 -2 3 C-1.34 2.01 -0.68 1.02 0 0 Z " fill="#F9C95B" transform="translate(112,555)"/>
<path d="M0 0 C0.66 0 1.32 0 2 0 C2 0.66 2 1.32 2 2 C2.66 2 3.32 2 4 2 C3.71125 2.680625 3.4225 3.36125 3.125 4.0625 C1.87402645 7.32893093 0.92552045 10.62846123 0 14 C-0.66 13.01 -1.32 12.02 -2 11 C-2.66 11 -3.32 11 -4 11 C-4.35858439 7.14521782 -4.2754818 5.42240542 -2.125 2.125 C-1.42375 1.42375 -0.7225 0.7225 0 0 Z " fill="#FBC44E" transform="translate(250,194)"/>
<path d="M0 0 C1.5625 1.625 1.5625 1.625 3 4 C2.78678027 8.79744395 0.97809101 12.69980215 -1 17 C-3.29013653 13.5647952 -3.17842973 12.014669 -3 8 C-2.34 8 -1.68 8 -1 8 C-1.33 5.69 -1.66 3.38 -2 1 C-1.34 0.67 -0.68 0.34 0 0 Z " fill="#F8C654" transform="translate(721,339)"/>
<path d="M0 0 C0.33 0.66 0.66 1.32 1 2 C-2.11751998 2.93714922 -4.74149909 3.05686895 -7.984375 2.87890625 C-8.91894531 2.83056641 -9.85351562 2.78222656 -10.81640625 2.73242188 C-11.78449219 2.67634766 -12.75257813 2.62027344 -13.75 2.5625 C-14.73355469 2.51029297 -15.71710937 2.45808594 -16.73046875 2.40429688 C-19.15398849 2.27488563 -21.57706864 2.13993095 -24 2 C-23.67 1.34 -23.34 0.68 -23 0 C-15.37645394 -1.20426895 -7.59151407 -1.41536703 0 0 Z " fill="#F2B542" transform="translate(594,670)"/>
<path d="M0 0 C1.76630091 4.71013576 0.86024137 9.97590266 -1.0625 14.5 C-1.371875 14.995 -1.68125 15.49 -2 16 C-2.99 15.67 -3.98 15.34 -5 15 C-4.88637738 13.5199159 -4.75877092 12.04089926 -4.625 10.5625 C-4.55539063 9.73878906 -4.48578125 8.91507813 -4.4140625 8.06640625 C-4.20910156 7.04353516 -4.20910156 7.04353516 -4 6 C-3.34 5.67 -2.68 5.34 -2 5 C-1.27840576 3.35636866 -0.60648579 1.68949614 0 0 Z " fill="#F8C350" transform="translate(237,227)"/>
<path d="M0 0 C0.33 0.99 0.66 1.98 1 3 C2.65 3 4.3 3 6 3 C6 2.34 6 1.68 6 1 C9.14930893 -0.04976964 11.38814456 -0.10131595 14.6875 -0.0625 C15.68136719 -0.05347656 16.67523438 -0.04445313 17.69921875 -0.03515625 C18.83810547 -0.01775391 18.83810547 -0.01775391 20 0 C15.97792788 4.02207212 8.78446366 3.87901941 3.3125 4.25 C-0.66585017 3.94974716 -4.16074491 3.07768564 -8 2 C-4.90279155 1.12159004 -3.09354597 1.00564594 0 2 C0 1.34 0 0.68 0 0 Z " fill="#E5AD41" transform="translate(183,669)"/>
<path d="M0 0 C2.5 0.125 2.5 0.125 3.5 1.125 C3.6875 3.5625 3.6875 3.5625 3.5 6.125 C2.84 6.785 2.18 7.445 1.5 8.125 C-1.43453261 7.75818342 -2.36437246 7.26062754 -4.5 5.125 C-3.7519084 0.18759542 -3.7519084 0.18759542 0 0 Z " fill="#151209" transform="translate(427.5,430.875)"/>
<path d="M0 0 C4.59306496 1.4859916 7.43569245 3.85014682 11 7 C10.67 7.99 10.34 8.98 10 10 C5.40693504 8.5140084 2.56430755 6.14985318 -1 3 C-0.67 2.01 -0.34 1.02 0 0 Z " fill="#EAB138" transform="translate(378,397)"/>
<path d="M0 0 C2.71687212 2.34638956 3.94515876 4.57176596 5 8 C4.67 8.66 4.34 9.32 4 10 C3.9310528 11.37342831 3.91532292 12.75002102 3.9375 14.125 C3.958125 15.40375 3.97875 16.6825 4 18 C3.67 18 3.34 18 3 18 C3 16.02 3 14.04 3 12 C2.34 11.67 1.68 11.34 1 11 C0.375 8.4375 0.375 8.4375 0 6 C-0.99 5.67 -1.98 5.34 -3 5 C-3.33 4.01 -3.66 3.02 -4 2 C-2.68 1.34 -1.36 0.68 0 0 Z " fill="#F7C555" transform="translate(729,231)"/>
<path d="M0 0 C0.66 0 1.32 0 2 0 C1.40895235 4.84659077 0.02055843 8.60748167 -2 13 C-3.98 13 -5.96 13 -8 13 C-8 12.01 -8 11.02 -8 10 C-7.21625 9.7525 -6.4325 9.505 -5.625 9.25 C-2.92969683 8.24171372 -2.92969683 8.24171372 -1.75 6.125 C-1.03392782 4.09612882 -0.45072134 2.10336625 0 0 Z " fill="#F4BC4A" transform="translate(356,327)"/>
<path d="M0 0 C1.32 0.66 2.64 1.32 4 2 C3.74225629 3.41910652 3.46816835 4.83524899 3.1875 6.25 C3.03667969 7.03890625 2.88585937 7.8278125 2.73046875 8.640625 C1.91980019 11.25904109 0.74878103 12.91104512 -1 15 C-1.02685412 12.68756208 -1.04632841 10.3750373 -1.0625 8.0625 C-1.07410156 6.77472656 -1.08570313 5.48695313 -1.09765625 4.16015625 C-1 1 -1 1 0 0 Z " fill="#F7C04A" transform="translate(685,434)"/>
<path d="M0 0 C3.5 0.1875 3.5 0.1875 5.5 1.1875 C5.5 2.1775 5.5 3.1675 5.5 4.1875 C4.55125 4.496875 3.6025 4.80625 2.625 5.125 C-0.36080408 6.06144742 -0.36080408 6.06144742 -2.5 7.1875 C-2.5 6.5275 -2.5 5.8675 -2.5 5.1875 C-3.16 5.1875 -3.82 5.1875 -4.5 5.1875 C-4.83 4.1975 -5.16 3.2075 -5.5 2.1875 C-3.5 0.1875 -3.5 0.1875 0 0 Z " fill="#F7BA41" transform="translate(256.5,190.8125)"/>
<path d="M0 0 C0.66 0 1.32 0 2 0 C1.45660208 4.56454251 0.20536179 7.9728176 -2 12 C-3.32 11.67 -4.64 11.34 -6 11 C-5.67 9.35 -5.34 7.7 -5 6 C-4.01 5.67 -3.02 5.34 -2 5 C-0.78130071 2.49552484 -0.78130071 2.49552484 0 0 Z " fill="#F4BD47" transform="translate(732,317)"/>
<path d="M0 0 C0.66 0 1.32 0 2 0 C2.95921722 1.74951568 3.91733817 3.49963244 4.875 5.25 C5.67550781 6.71179688 5.67550781 6.71179688 6.4921875 8.203125 C7.70419466 10.45130408 8.87547567 12.7072805 10 15 C8.16796875 14.765625 8.16796875 14.765625 6 14 C4.55078125 12.109375 4.55078125 12.109375 3.3125 9.75 C2.89613281 8.98171875 2.47976562 8.2134375 2.05078125 7.421875 C0.97613142 4.94498692 0.4289757 2.65870652 0 0 Z " fill="#F6C452" transform="translate(116,620)"/>
<path d="M0 0 C0.5775 0.804375 1.155 1.60875 1.75 2.4375 C3.98126893 4.97866739 4.74456771 5.65120368 8 6 C8.66 4.35 9.32 2.7 10 1 C10.33 1 10.66 1 11 1 C11.625 3.875 11.625 3.875 12 7 C10 9 10 9 6.5625 9.3125 C3 9 3 9 1.0625 7.875 C-0.44484863 5.214973 -0.19986253 2.99793795 0 0 Z " fill="#D7A432" transform="translate(421,432)"/>
<path d="M0 0 C-0.1875 1.875 -0.1875 1.875 -1 4 C-3.5625 5.25 -3.5625 5.25 -6 6 C-6 5.34 -6 4.68 -6 4 C-8.31 4.33 -10.62 4.66 -13 5 C-4.82022472 -1.60674157 -4.82022472 -1.60674157 0 0 Z " fill="#DBA634" transform="translate(518,386)"/>
<path d="M0 0 C4.98727344 2.02474777 6.36752475 5.46629262 9 10 C4.71 10 0.42 10 -4 10 C-4 9.67 -4 9.34 -4 9 C-2.02 9 -0.04 9 2 9 C2.23428313 4.2102679 2.23428313 4.2102679 0 0 Z " fill="#EBA821" transform="translate(300,512)"/>
<path d="M0 0 C2.64 1.65 5.28 3.3 8 5 C7.01 6.32 6.02 7.64 5 9 C2.69 7.35 0.38 5.7 -2 4 C-1.34 2.68 -0.68 1.36 0 0 Z " fill="#E1A935" transform="translate(389,404)"/>
<path d="M0 0 C0.99 0.66 1.98 1.32 3 2 C3.1875 5.125 3.1875 5.125 3 8 C0.11424181 7.60196439 -0.82189513 7.20990931 -2.75 4.9375 C-3.1625 4.298125 -3.575 3.65875 -4 3 C-3 1 -3 1 0 0 Z " fill="#161202" transform="translate(720,210)"/>
<path d="M0 0 C4.29 0 8.58 0 13 0 C13 0.66 13 1.32 13 2 C10.35541621 3.32229189 8.32238699 3.09677194 5.375 3.0625 C4.37210937 3.05347656 3.36921875 3.04445312 2.3359375 3.03515625 C1.56507813 3.02355469 0.79421875 3.01195312 0 3 C0 2.01 0 1.02 0 0 Z " fill="#FABE46" transform="translate(299,192)"/>
<path d="M0 0 C0.99 0.495 0.99 0.495 2 1 C3.18833921 6.29351102 2.99862694 10.7345125 2 16 C1.34 16.33 0.68 16.66 0 17 C0 11.39 0 5.78 0 0 Z " fill="#1C180E" transform="translate(432,639)"/>
<path d="M0 0 C0.33 0 0.66 0 1 0 C1 4.29 1 8.58 1 13 C0.34 12.67 -0.32 12.34 -1 12 C-1.66 12.66 -2.32 13.32 -3 14 C-4.25955231 10.22134307 -3.48087189 8.96588214 -2.0625 5.3125 C-1.68222656 4.31863281 -1.30195313 3.32476563 -0.91015625 2.30078125 C-0.60980469 1.54152344 -0.30945313 0.78226563 0 0 Z " fill="#EEB13C" transform="translate(482,556)"/>
<path d="M0 0 C0.66 0.33 1.32 0.66 2 1 C2 1.66 2 2.32 2 3 C2.66 3.33 3.32 3.66 4 4 C3.236875 4.86625 2.47375 5.7325 1.6875 6.625 C-0.75220073 9.53600655 -2.42998277 12.52943561 -4 16 C-5.35304209 11.94087374 -4.15216503 10.22850409 -2.5625 6.3125 C-2.08941406 5.13300781 -1.61632812 3.95351562 -1.12890625 2.73828125 C-0.75636719 1.83464844 -0.38382813 0.93101562 0 0 Z " fill="#E4A938" transform="translate(239,217)"/>
<path d="M0 0 C0.66 0.33 1.32 0.66 2 1 C0.35 5.62 -1.3 10.24 -3 15 C-3.33 15 -3.66 15 -4 15 C-4.63019694 4.84682713 -4.63019694 4.84682713 -2 1.3125 C-1.34 0.879375 -0.68 0.44625 0 0 Z " fill="#1B1A10" transform="translate(445,650)"/>
<path d="M0 0 C0.66 0 1.32 0 2 0 C2.66 0.66 3.32 1.32 4 2 C3.96712417 4.72869407 3.43602229 7.2966618 3 10 C1.68 9.34 0.36 8.68 -1 8 C-1.125 2.25 -1.125 2.25 0 0 Z " fill="#FDC751" transform="translate(386,237)"/>
<path d="M0 0 C3.96 1.98 3.96 1.98 8 4 C8 4.66 8 5.32 8 6 C6.02 6.33 4.04 6.66 2 7 C2 6.34 2 5.68 2 5 C1.01 5 0.02 5 -1 5 C-0.67 3.35 -0.34 1.7 0 0 Z " fill="#F2BC45" transform="translate(689,196)"/>
<path d="M0 0 C3.96 0 7.92 0 12 0 C11.01 0.33 10.02 0.66 9 1 C9 2.98 9 4.96 9 7 C8.2575 6.401875 7.515 5.80375 6.75 5.1875 C4.52921629 3.4209675 2.27015663 1.70261747 0 0 Z " fill="#ED962A" transform="translate(549,339)"/>
<path d="M0 0 C0.33 0 0.66 0 1 0 C1.75612577 5.23471686 2.2063366 9.77254141 1 15 C0.67 15 0.34 15 0 15 C-0.38863565 12.87745145 -0.76053209 10.75183172 -1.125 8.625 C-1.33382813 7.44164062 -1.54265625 6.25828125 -1.7578125 5.0390625 C-1.83773438 4.03617188 -1.91765625 3.03328125 -2 2 C-1.34 1.34 -0.68 0.68 0 0 Z " fill="#F7BE49" transform="translate(403,195)"/>
<path d="M0 0 C1.32 0.33 2.64 0.66 4 1 C4.33663062 4.70293685 4.47736015 6.39534381 2.125 9.375 C0 11 0 11 -2 11 C-1.67 10.484375 -1.34 9.96875 -1 9.4375 C0.32010877 6.21973488 0.13242105 3.4429472 0 0 Z " fill="#FCCC5E" transform="translate(599,658)"/>
<path d="M0 0 C7.42857143 -0.14285714 7.42857143 -0.14285714 11 1 C10.67 1.66 10.34 2.32 10 3 C9.34 2.67 8.68 2.34 8 2 C7.67 2.66 7.34 3.32 7 4 C5.824375 3.9690625 5.824375 3.9690625 4.625 3.9375 C2.01885039 3.81315937 2.01885039 3.81315937 0 5 C0 3.35 0 1.7 0 0 Z " fill="#D09F30" transform="translate(423,428)"/>
<path d="M0 0 C0.99 0 1.98 0 3 0 C3.33 0.99 3.66 1.98 4 3 C3.34 3 2.68 3 2 3 C2.33 5.64 2.66 8.28 3 11 C2.34 11 1.68 11 1 11 C-0.62950412 6.87831311 -1.26264601 4.29299643 0 0 Z " fill="#F9C64F" transform="translate(709,365)"/>
<path d="M0 0 C0.33 1.32 0.66 2.64 1 4 C0.01 4.495 0.01 4.495 -1 5 C-1.33 5.99 -1.66 6.98 -2 8 C-3.65 8.33 -5.3 8.66 -7 9 C-5.64978174 4.58110387 -3.73884332 2.65654657 0 0 Z " fill="#E0AA42" transform="translate(425,189)"/>
<path d="M0 0 C0.33 0 0.66 0 1 0 C0.67 2.97 0.34 5.94 0 9 C-1.65 8.67 -3.3 8.34 -5 8 C-5 5.69 -5 3.38 -5 1 C-4.67 2.32 -4.34 3.64 -4 5 C-0.75150023 3.27773504 -0.75150023 3.27773504 0 0 Z " fill="#F8C85B" transform="translate(738,248)"/>
<path d="M0 0 C0.33 0 0.66 0 1 0 C1.05391993 1.79133978 1.09275571 3.58313899 1.125 5.375 C1.14820313 6.37273437 1.17140625 7.37046875 1.1953125 8.3984375 C1 11 1 11 -1 13 C-2.16045439 8.74500059 -1.82904781 5.31104861 -1 1 C-0.67 0.67 -0.34 0.34 0 0 Z " fill="#EBAE3E" transform="translate(406,192)"/>
<path d="M0 0 C-0.33 1.32 -0.66 2.64 -1 4 C-1.66 4 -2.32 4 -3 4 C-3 5.65 -3 7.3 -3 9 C-3.66 9 -4.32 9 -5 9 C-5.33 6.36 -5.66 3.72 -6 1 C-3 0 -3 0 0 0 Z " fill="#F3BD37" transform="translate(437,429)"/>
<path d="M0 0 C0.33 0 0.66 0 1 0 C1 2.97 1 5.94 1 9 C0.01 8.67 -0.98 8.34 -2 8 C-1.47731534 5.23723823 -0.89130413 2.6739124 0 0 Z M-4 8 C-3.01 8.33 -2.02 8.66 -1 9 C-1.99 10.32 -2.98 11.64 -4 13 C-4.5625 11.0625 -4.5625 11.0625 -5 9 C-4.67 8.67 -4.34 8.34 -4 8 Z " fill="#F9C44C" transform="translate(219,274)"/>
<path d="M0 0 C2.4375 0.75 2.4375 0.75 5 2 C5.8125 4.125 5.8125 4.125 6 6 C1.25 5.125 1.25 5.125 -1 4 C-0.67 2.68 -0.34 1.36 0 0 Z " fill="#E4B039" transform="translate(366,388)"/>
<path d="M0 0 C0.33 0 0.66 0 1 0 C1 3.96 1 7.92 1 12 C0.01 11.67 -0.98 11.34 -2 11 C-1.34 10.01 -0.68 9.02 0 8 C-0.66 8 -1.32 8 -2 8 C-2.125 5.125 -2.125 5.125 -2 2 C-1.34 1.34 -0.68 0.68 0 0 Z " fill="#FABE44" transform="translate(227,254)"/>
<path d="M0 0 C0.88935377 3.303314 1.46274105 6.62294375 2 10 C1.01 10 0.02 10 -1 10 C-1.9765625 3.9453125 -1.9765625 3.9453125 -2 2 C-1.34 1.34 -0.68 0.68 0 0 Z " fill="#FAC24C" transform="translate(461,617)"/>
<path d="M0 0 C0.99 0.33 1.98 0.66 3 1 C3.92470553 5.71599818 4.22923777 8.67265609 2 13 C1.67 13 1.34 13 1 13 C0.67 8.71 0.34 4.42 0 0 Z " fill="#F7C049" transform="translate(378,258)"/>
<path d="M0 0 C1.13825019 3.41475056 0.70549041 4.5509358 0 8 C-0.03824623 10.33301986 -0.04574284 12.66711508 0 15 C-0.66 15 -1.32 15 -2 15 C-2.05386629 12.87527424 -2.09273071 10.75016348 -2.125 8.625 C-2.14820313 7.44164062 -2.17140625 6.25828125 -2.1953125 5.0390625 C-2 2 -2 2 0 0 Z " fill="#FBC047" transform="translate(485,553)"/>
<path d="M0 0 C-0.60183749 2.02045442 -1.27306096 4.02111039 -2 6 C-2.99 6.495 -2.99 6.495 -4 7 C-4 6.34 -4 5.68 -4 5 C-5.32 4.34 -6.64 3.68 -8 3 C-2.25 0 -2.25 0 0 0 Z " fill="#DFAB35" transform="translate(479,405)"/>
<path d="M0 0 C0.99 0.33 1.98 0.66 3 1 C3 4.63 3 8.26 3 12 C0 9 0 9 -0.29296875 6.73828125 C-0.25816406 5.93777344 -0.22335937 5.13726562 -0.1875 4.3125 C-0.16042969 3.50425781 -0.13335937 2.69601562 -0.10546875 1.86328125 C-0.07066406 1.24839844 -0.03585937 0.63351562 0 0 Z " fill="#FBC44C" transform="translate(370,277)"/>
<path d="M0 0 C1.65 0.33 3.3 0.66 5 1 C4.67 3.97 4.34 6.94 4 10 C3.67 10 3.34 10 3 10 C3 7.69 3 5.38 3 3 C1.68 3.33 0.36 3.66 -1 4 C-0.67 2.68 -0.34 1.36 0 0 Z " fill="#F7BE4C" transform="translate(445,654)"/>
<path d="M0 0 C1.2077558 3.62326739 0.54311128 4.64146369 -1 8 C-2.32 7.67 -3.64 7.34 -5 7 C-4.67 5.35 -4.34 3.7 -4 2 C-3.67 2.66 -3.34 3.32 -3 4 C-2.34 4 -1.68 4 -1 4 C-0.67 2.68 -0.34 1.36 0 0 Z " fill="#F6C954" transform="translate(702,399)"/>
<path d="M0 0 C3.25543229 0.34879632 4.01873107 1.02133261 6.25 3.5625 C6.8275 4.366875 7.405 5.17125 8 6 C4 6 4 6 1.75 4.125 C0 2 0 2 0 0 Z " fill="#E9C55A" transform="translate(711,211)"/>
<path d="M0 0 C0.33 0 0.66 0 1 0 C1 2.31 1 4.62 1 7 C-0.32 7 -1.64 7 -3 7 C-2.25 2.25 -2.25 2.25 0 0 Z " fill="#FCCB5B" transform="translate(235,235)"/>
<path d="M0 0 C0.33 1.65 0.66 3.3 1 5 C-0.98 5 -2.96 5 -5 5 C-5 4.01 -5 3.02 -5 2 C-2 0 -2 0 0 0 Z " fill="#FCC451" transform="translate(353,335)"/>
<path d="M0 0 C0.99 0.99 1.98 1.98 3 3 C2.01 3.33 1.02 3.66 0 4 C0 4.66 0 5.32 0 6 C-0.99 5.67 -1.98 5.34 -3 5 C-3.33 4.01 -3.66 3.02 -4 2 C-2.68 1.34 -1.36 0.68 0 0 Z " fill="#F1BB49" transform="translate(729,231)"/>
<path d="M0 0 C0.66 0.33 1.32 0.66 2 1 C1.34 1.66 0.68 2.32 0 3 C0 3.99 0 4.98 0 6 C-0.99 6.33 -1.98 6.66 -3 7 C-3 6.01 -3 5.02 -3 4 C-3.99 3.67 -4.98 3.34 -6 3 C-4.03533587 1.93224776 -2.03144641 0.93446535 0 0 Z " fill="#E2AB30" transform="translate(440,425)"/>
<path d="M0 0 C0 3.38023517 -0.87455622 5.83468937 -2 9 C-2.66 9 -3.32 9 -4 9 C-4.25 6.1875 -4.25 6.1875 -4 3 C-2 1.125 -2 1.125 0 0 Z " fill="#FBCB5F" transform="translate(250,196)"/>
<path d="M0 0 C0.66 0 1.32 0 2 0 C2 0.99 2 1.98 2 3 C2.66 3 3.32 3 4 3 C4 4.32 4 5.64 4 7 C3.01 7 2.02 7 1 7 C-0.0625 4.625 -0.0625 4.625 -1 2 C-0.67 1.34 -0.34 0.68 0 0 Z " fill="#F7C356" transform="translate(642,546)"/>
<path d="M0 0 C0 0.99 0 1.98 0 3 C0.66 3.66 1.32 4.32 2 5 C0.35 5.66 -1.3 6.32 -3 7 C-3.33 5.35 -3.66 3.7 -4 2 C-2.68 1.34 -1.36 0.68 0 0 Z " fill="#DCA734" transform="translate(496,395)"/>
<path d="M0 0 C2 4 2 4 1.3125 6.125 C0 8 0 8 -3 10 C-2.01 6.7 -1.02 3.4 0 0 Z " fill="#E3AC40" transform="translate(231,238)"/>
<path d="M0 0 C0.99 0 1.98 0 3 0 C2.67 1.98 2.34 3.96 2 6 C0.68 6.33 -0.64 6.66 -2 7 C-1.34 4.69 -0.68 2.38 0 0 Z " fill="#E6AF3E" transform="translate(125,518)"/>
<path d="M0 0 C0.66 0 1.32 0 2 0 C2.1875 2.375 2.1875 2.375 2 5 C1.01 5.66 0.02 6.32 -1 7 C-1.625 4.625 -1.625 4.625 -2 2 C-1.34 1.34 -0.68 0.68 0 0 Z " fill="#FBC54D" transform="translate(213,290)"/>
<path d="M0 0 C1.98 0.99 1.98 0.99 4 2 C3.6875 3.9375 3.6875 3.9375 3 6 C2.01 6.33 1.02 6.66 0 7 C0 4.69 0 2.38 0 0 Z " fill="#FCDB7B" transform="translate(734,246)"/>
<path d="M0 0 C2.31 0.33 4.62 0.66 7 1 C7 1.66 7 2.32 7 3 C7.66 3.33 8.32 3.66 9 4 C2.25 3.125 2.25 3.125 0 2 C0 1.34 0 0.68 0 0 Z " fill="#E5AC42" transform="translate(166,666)"/>
<path d="M0 0 C2.475 0.495 2.475 0.495 5 1 C5 2.32 5 3.64 5 5 C3.0625 4.1875 3.0625 4.1875 1 3 C0.67 2.01 0.34 1.02 0 0 Z " fill="#F4BC41" transform="translate(383,402)"/>
<path d="M0 0 C1.32 0.33 2.64 0.66 4 1 C4 2.32 4 3.64 4 5 C2.68 5 1.36 5 0 5 C0 3.35 0 1.7 0 0 Z " fill="#FBC552" transform="translate(201,319)"/>
<path d="M0 0 C0.33 0 0.66 0 1 0 C1 1.65 1 3.3 1 5 C1.66 5 2.32 5 3 5 C2.67 5.99 2.34 6.98 2 8 C0.68 7.67 -0.64 7.34 -2 7 C-1.34 4.69 -0.68 2.38 0 0 Z " fill="#E0A433" transform="translate(224,257)"/>
<path d="M0 0 C2.125 0.9375 2.125 0.9375 4 2 C3.67 2.66 3.34 3.32 3 4 C0.36 3.67 -2.28 3.34 -5 3 C-2 1 -2 1 0 0 Z " fill="#DFA435" transform="translate(260,188)"/>
<path d="M0 0 C0.33 0.66 0.66 1.32 1 2 C-2.57644848 3.2380014 -5.33694766 2.74926071 -9 2 C-5.5647952 -0.29013653 -4.014669 -0.17842973 0 0 Z " fill="#DFA741" transform="translate(594,670)"/>
<path d="M0 0 C3.82946843 1.45255699 5.12050295 3.42895561 7 7 C5.68 7 4.36 7 3 7 C2.690625 6.21625 2.38125 5.4325 2.0625 4.625 C1.07124962 2.07669872 1.07124962 2.07669872 0 0 Z " fill="#DFA11E" transform="translate(300,512)"/>
<path d="M0 0 C1.46726798 3.81489674 0.43336419 6.29011622 -1 10 C-2.4606285 7.35261084 -3 6.10551666 -3 3 C-2.01 3 -1.02 3 0 3 C0 2.01 0 1.02 0 0 Z " fill="#F3B83E" transform="translate(375,278)"/>
<path d="M0 0 C0.99 0.33 1.98 0.66 3 1 C2.67 2.32 2.34 3.64 2 5 C1.01 5 0.02 5 -1 5 C-1.33 3.68 -1.66 2.36 -2 1 C-1.34 0.67 -0.68 0.34 0 0 Z " fill="#F9BB43" transform="translate(242,215)"/>
<path d="M0 0 C1.98 0.66 3.96 1.32 6 2 C6 2.66 6 3.32 6 4 C4.125 4.625 4.125 4.625 2 5 C1.34 4.34 0.68 3.68 0 3 C0 2.01 0 1.02 0 0 Z " fill="#F7C450" transform="translate(683,194)"/>
<path d="M0 0 C2 3 2 3 1.75 5.0625 C1 7 1 7 -1 9 C-2.25541557 5.23375329 -1.37061958 3.62811066 0 0 Z " fill="#DDA334" transform="translate(480,561)"/>
<path d="M0 0 C1.32 0 2.64 0 4 0 C4 0.99 4 1.98 4 3 C2.35 3.66 0.7 4.32 -1 5 C-1 2 -1 2 0 0 Z " fill="#F3BA34" transform="translate(451,420)"/>
<path d="M0 0 C1.32 0.33 2.64 0.66 4 1 C3.34 2.98 2.68 4.96 2 7 C0 5 0 5 -0.125 2.375 C-0.08375 1.59125 -0.0425 0.8075 0 0 Z " fill="#1E130B" transform="translate(231,229)"/>
<path d="M0 0 C3 1 3 1 4.1875 3.0625 C4.455625 3.701875 4.72375 4.34125 5 5 C4.01 5.33 3.02 5.66 2 6 C1.01 4.35 0.02 2.7 -1 1 C-0.67 0.67 -0.34 0.34 0 0 Z " fill="#E8AF3F" transform="translate(725,226)"/>
</svg>
